# xmcd
#
# Track frame offsets:
#	150
#	49360
#	85013
#	109257
#	149018
#	178899
#	192297
#	227266
#	261812
#
# Disc length: 3783 seconds
#
# Revision: 0
# Processed by: cddbd v1.5.2PL0 Copyright (c) Steve Scherf et al.
# Submitted via: audiograbber 1.83.01
#
DISCID=7d0ec509
DTITLE=Grateful Dead - 94-10-09 USAir Arena, Landover MD
DYEAR=1900
DGENRE=
TTITLE0=Hell In A Bucket
TTITLE1=Bertha
TTITLE2=Spoonful
TTITLE3=Stagger Lee
TTITLE4=Broken Arrow
TTITLE5=Me and My Uncle
TTITLE6=Big River
TTITLE7=So Many Roads
TTITLE8=Promised Land
EXTD=
EXTT0=
EXTT1=
EXTT2=
EXTT3=
EXTT4=
EXTT5=
EXTT6=
EXTT7=
EXTT8=
PLAYORDER=
